<svg xmlns="http://www.w3.org/2000/svg" width="32" height="32" fill="none" viewBox="0 0 32 32"><g filter="url(#filter0_ii_229_194)"><path fill="#fff" d="M0 7.11114C0 4.90223 0 3.79777 0.36087 2.92656C0.842029 1.76493 1.76493 0.842029 2.92656 0.36087C3.79777 0 4.90224 0 7.11116 0H24.494C26.703 0 27.8074 0 28.6785 0.36087C29.8401 0.842029 30.7631 1.76493 31.2442 2.92656C31.6051 3.79777 31.6051 4.90224 31.6051 7.11116V24.494C31.6051 26.703 31.6051 27.8074 31.2442 28.6785C30.7631 29.8401 29.8401 30.7631 28.6785 31.2442C27.8074 31.6051 26.7028 31.6051 24.494 31.6051H7.11114C4.90223 31.6051 3.79777 31.6051 2.92656 31.2442C1.76493 30.7631 0.842029 29.8401 0.36087 28.6785C0 27.8074 0 26.7028 0 24.494V7.11114Z"/></g><path fill="#FF8D1A" d="M16.0001 7.51518C11.3249 7.51518 7.51526 11.3249 7.51526 16C7.51526 20.6752 11.3249 24.4849 16.0001 24.4849C17.171 24.4849 18.1213 23.5345 18.1213 22.3636C18.1213 21.8461 17.9261 21.3455 17.5783 20.9468C17.5104 20.8618 17.4679 20.7686 17.4679 20.6668C17.4679 20.4291 17.6547 20.2425 17.8922 20.2425H19.394C22.2025 20.2425 24.4849 17.96 24.4849 15.1516C24.4849 10.9431 20.6752 7.51518 16.0001 7.51518ZM20.6667 16.8486C19.9625 16.8486 19.394 16.28 19.394 15.5759C19.394 14.8716 19.9625 14.3031 20.6667 14.3031C21.371 14.3031 21.9395 14.8716 21.9395 15.5759C21.9395 16.28 21.371 16.8486 20.6667 16.8486ZM18.1213 13.4546C17.417 13.4546 16.8486 12.8861 16.8486 12.1818C16.8486 11.4776 17.417 10.9091 18.1213 10.9091C18.8256 10.9091 19.394 11.4776 19.394 12.1818C19.394 12.8861 18.8256 13.4546 18.1213 13.4546ZM10.0607 15.5759C10.0607 14.8716 10.6292 14.3031 11.3334 14.3031C12.0377 14.3031 12.6062 14.8716 12.6062 15.5759C12.6062 16.28 12.0377 16.8486 11.3334 16.8486C10.6292 16.8486 10.0607 16.28 10.0607 15.5759ZM15.1515 12.1818C15.1515 12.8861 14.5831 13.4546 13.8789 13.4546C13.1746 13.4546 12.6062 12.8861 12.6062 12.1818C12.6062 11.4776 13.1746 10.9091 13.8789 10.9091C14.5831 10.9091 15.1515 11.4776 15.1515 12.1818Z"/><defs><filter id="filter0_ii_229_194" width="31.605" height="34.357" x="0" y="-1.376" color-interpolation-filters="sRGB" filterUnits="userSpaceOnUse"><feFlood flood-opacity="0" result="BackgroundImageFix"/><feBlend in="SourceGraphic" in2="BackgroundImageFix" mode="normal" result="shape"/><feColorMatrix in="SourceAlpha" result="hardAlpha" type="matrix" values="0 0 0 0 0 0 0 0 0 0 0 0 0 0 0 0 0 0 127 0"/><feOffset dy="-1.376"/><feGaussianBlur stdDeviation="1.376"/><feComposite in2="hardAlpha" k2="-1" k3="1" operator="arithmetic"/><feColorMatrix type="matrix" values="0 0 0 0 0 0 0 0 0 0 0 0 0 0 0 0 0 0 0.31 0"/><feBlend in2="shape" mode="normal" result="effect1_innerShadow_229_194"/><feColorMatrix in="SourceAlpha" result="hardAlpha" type="matrix" values="0 0 0 0 0 0 0 0 0 0 0 0 0 0 0 0 0 0 127 0"/><feOffset dy="1.376"/><feGaussianBlur stdDeviation="2"/><feComposite in2="hardAlpha" k2="-1" k3="1" operator="arithmetic"/><feColorMatrix type="matrix" values="0 0 0 0 1 0 0 0 0 1 0 0 0 0 1 0 0 0 0.25 0"/><feBlend in2="effect1_innerShadow_229_194" mode="normal" result="effect2_innerShadow_229_194"/></filter></defs></svg>