<svg width="34" height="34" viewBox="0 0 34 34" fill="none" xmlns="http://www.w3.org/2000/svg">
<g id="iconspace_Visible_25px">
<path id="Path" fill-rule="evenodd" clip-rule="evenodd" d="M16.9999 10.8799C12.0599 10.8799 7.64765 14.2569 5.49174 19.4596C5.42267 19.6263 5.42267 19.8135 5.49174 19.9802C7.64765 25.1829 12.0599 28.5599 16.9999 28.5599C21.9399 28.5599 26.3522 25.1829 28.5081 19.9802C28.5772 19.8135 28.5772 19.6263 28.5081 19.4596C26.3522 14.2569 21.9399 10.8799 16.9999 10.8799ZM13.5999 19.7201C13.5999 21.5978 15.1222 23.1201 16.9999 23.1201C18.8777 23.1201 20.3999 21.5978 20.3999 19.7201C20.3999 17.8423 18.8777 16.3201 16.9999 16.3201C15.1222 16.3201 13.5999 17.8423 13.5999 19.7201Z" fill="#2AB7CA"/>
<path id="Path_2" fill-rule="evenodd" clip-rule="evenodd" d="M17.0001 5.1001C16.4367 5.1001 15.9801 5.55676 15.9801 6.12009V8.84009C15.9801 9.40344 16.4367 9.86011 17.0001 9.86011C17.5634 9.86011 18.0201 9.40344 18.0201 8.84009V6.12009C18.0201 5.55676 17.5634 5.1001 17.0001 5.1001ZM19.0401 19.7199C19.0401 20.8466 18.1268 21.7599 17.0001 21.7599C15.8735 21.7599 14.9601 20.8466 14.9601 19.7199C14.9601 18.5933 15.8735 17.6799 17.0001 17.6799C18.1268 17.6799 19.0401 18.5933 19.0401 19.7199ZM27.1589 6.7587C27.5572 6.36038 28.203 6.36038 28.6014 6.7587C28.9997 7.15704 28.9997 7.80289 28.6014 8.2012L25.8814 10.9212C25.483 11.3195 24.8372 11.3195 24.4389 10.9212C24.0405 10.5229 24.0405 9.87704 24.4389 9.4787L27.1589 6.7587ZM9.56135 9.4787L6.84135 6.7587C6.44301 6.36038 5.79718 6.36038 5.39885 6.7587C5.00051 7.15704 5.00051 7.80289 5.39885 8.2012L8.11885 10.9212C8.51718 11.3195 9.16301 11.3195 9.56135 10.9212C9.95968 10.5229 9.95968 9.87704 9.56135 9.4787Z" fill="#2AB7CA"/>
</g>
</svg>
