<svg width="34" height="34" viewBox="0 0 34 34" fill="none" xmlns="http://www.w3.org/2000/svg">
<g id="Iconspace_Signal_Tower_25px">
<path id="Combined Shape" d="M15.49 18.6631C14.3842 18.0982 13.6282 16.9565 13.6282 15.64C13.6282 13.7622 15.1663 12.24 17.0636 12.24C18.961 12.24 20.4991 13.7622 20.4991 15.64C20.4991 16.9976 19.6951 18.1694 18.5326 18.7144L22.9378 28.4028C23.405 29.4303 22.9421 30.638 21.904 31.1003C21.638 31.2187 21.3497 31.28 21.0581 31.28H12.9411C11.8027 31.28 10.8799 30.3667 10.8799 29.24C10.8799 28.9514 10.9418 28.666 11.0614 28.4028L15.49 18.6631Z" fill="#2AB7CA"/>
<path id="Combined Shape_2" fill-rule="evenodd" clip-rule="evenodd" d="M11.6226 25.1551C11.9447 24.693 11.8312 24.0572 11.3691 23.735C8.71923 21.888 7.1401 18.8827 7.1401 15.64C7.1401 10.1945 11.5546 5.77998 17.0001 5.77998C22.4456 5.77998 26.8601 10.1945 26.8601 15.64C26.8601 18.8827 25.281 21.888 22.6311 23.735C22.169 24.0572 22.0555 24.693 22.3776 25.1551C22.6998 25.6172 23.3355 25.7307 23.7977 25.4086C26.9933 23.1811 28.9001 19.5519 28.9001 15.64C28.9001 9.06779 23.5723 3.73999 17.0001 3.73999C10.4279 3.73999 5.1001 9.06779 5.1001 15.64C5.1001 19.5519 7.00694 23.1811 10.2025 25.4086C10.6647 25.7307 11.3004 25.6172 11.6226 25.1551ZM13.521 21.5717C13.8752 21.1337 13.8072 20.4914 13.3691 20.1373C12.0087 19.0373 11.2201 17.3964 11.2201 15.6398C11.2201 12.4476 13.8079 9.85982 17.0001 9.85982C20.1923 9.85982 22.7801 12.4476 22.7801 15.6398C22.7801 17.3964 21.9915 19.0373 20.6311 20.1373C20.1931 20.4914 20.1251 21.1337 20.4793 21.5717C20.8334 22.0098 21.4757 22.0778 21.9137 21.7236C23.7518 20.2374 24.8201 18.0143 24.8201 15.6398C24.8201 11.321 21.319 7.81982 17.0001 7.81982C12.6812 7.81982 9.18011 11.321 9.18011 15.6398C9.18011 18.0143 10.2484 20.2374 12.0865 21.7236C12.5245 22.0778 13.1668 22.0098 13.521 21.5717Z" fill="#2AB7CA"/>
</g>
</svg>
