<svg width="110" height="75" viewBox="0 0 110 75" fill="none" xmlns="http://www.w3.org/2000/svg">
<path d="M109.573 74.0273H0.00251371C0.00251371 74.0273 0.00251371 71.9704 0.00251371 69.4338L0 4.59268C0 2.05609 0 -5.34058e-05 0 -5.34058e-05H109.573C109.573 -5.34058e-05 109.573 2.05609 109.573 4.59268C109.573 4.59268 109.573 66.8972 109.573 69.4338C109.573 71.9704 109.573 74.0273 109.573 74.0273Z" fill="#2AB7CA"/>
<path d="M6.36426 65.2529H103.117V8.68976H6.36426V65.2529Z" fill="#F8F8F7"/>
<path d="M68.5088 56.7244H93.7605V22.9001H68.5088V56.7244Z" fill="#F8F8F8"/>
<path d="M70.8877 29.4573H91.3827V26.0864H70.8877V29.4573Z" fill="#FD5E34"/>
<path d="M70.8877 35.7041H91.3827V32.3333H70.8877V35.7041Z" fill="#F57F17"/>
<path d="M70.8877 41.9497H91.3827V38.5792H70.8877V41.9497Z" fill="white"/>
<path d="M70.8877 48.1956H91.3827V44.8247H70.8877V48.1956Z" fill="white"/>
<path d="M70.8877 54.4421H91.3827V51.0706H70.8877V54.4421Z" fill="white"/>
<path d="M29.8815 22.6063C29.8815 22.6063 35.0355 22.6382 35.7544 26.1918C36.4732 29.7463 35.8339 33.7384 36.7134 36.2396C37.5921 38.7407 40.3293 45.7165 34.4556 46.1118C28.5828 46.5061 27.6238 44.7293 26.1853 44.664C25.6201 44.6379 24.9437 45.189 24.072 45.7394C22.7269 46.5911 20.9171 47.4411 18.3343 46.1689C14.0798 44.0712 15.9376 39.3547 17.7753 38.7848C19.6129 38.214 18.8964 34.8571 18.4547 33.7385C17.5351 31.4129 16.8564 24.2615 23.1292 22.1556C28.199 20.4531 29.8815 22.6063 29.8815 22.6063Z" fill="#21305C"/>
<path d="M24.9345 35.5163C24.5531 40.3005 24.2481 45.969 22.3857 50.0061C22.5942 51.9454 23.608 55.6313 28.3288 55.5023C32.33 55.3921 33.513 52.7448 33.8388 50.7785C31.9687 47.4176 30.8321 42.9012 30.5742 38.4542C28.745 38.4485 26.2062 36.4839 24.9345 35.5163Z" fill="#F08074"/>
<path d="M26.2668 24.3954C26.2668 24.3954 32.7388 24.7245 34.0769 26.1395C35.4151 27.5546 35.3525 30.4281 35.7262 34.6399C36.0999 38.8525 33.6515 43.5028 31.4941 44.1169C29.3368 44.7318 23.4045 40.8049 22.5745 34.2561C21.7444 27.7082 23.7751 24.1733 26.2668 24.3954Z" fill="#F6B68E"/>
<path d="M74.8895 43.654C74.8895 43.654 78.0576 39.9362 79.286 37.8908C80.4975 35.8747 85.0199 29.2246 85.9611 30.2682C86.8946 31.3028 83.0008 36.8105 83.0008 36.8105C83.0008 36.8105 86.7742 29.6746 88.0953 30.4585C89.3986 31.2317 84.5944 37.5053 84.5944 37.5053C84.5944 37.5053 88.6875 31.4702 89.3902 32.3137C90.0882 33.1515 89.2574 34.4833 85.8862 38.8894C85.8862 38.8894 88.7756 35.0932 89.4759 36.2887C90.1716 37.4759 86.8777 40.8304 85.7225 41.5693C84.5528 42.3181 78.8891 45.5027 77.3619 47.0664C77.3619 47.0664 74.6455 45.586 74.8895 43.654Z" fill="#F6B68E"/>
<path d="M85.4147 37.6031C85.0842 36.6951 83.743 36.771 82.9384 36.8478C81.9516 36.9425 81.0498 37.2993 80.4074 38.1289C80.0685 38.5658 79.8013 39.0084 79.4275 39.4207C78.7087 40.2144 79.1905 40.8873 79.4152 41.7487C79.4808 41.9994 81.0544 42.2509 82.5686 41.6091C83.6658 41.1445 84.7877 39.8821 85.0124 39.3921C85.3019 38.7601 85.5297 37.9183 85.4147 37.6031Z" fill="#F7916C"/>
<path d="M80.0996 38.6614C80.0996 38.6614 83.7016 36.0786 84.8189 36.8666C85.937 37.6546 84.9432 38.6614 81.1343 40.3247C81.1343 40.3247 79.8927 42.2951 79.0233 42.5139C79.0233 42.5139 77.7446 40.0626 80.0996 38.6614Z" fill="#F8A21B"/>
<path d="M29.1443 22.839C29.1443 22.839 30.921 31.025 25.4033 32.0531C25.4033 32.0531 23.9517 34.1336 24.7392 36.678C25.5276 39.2232 27.2912 44.6517 24.1069 45.9084C20.9226 47.1643 18.5166 45.1163 19.8022 39.8226C21.0886 34.5289 21.0886 31.6325 21.877 27.7718C22.6653 23.9103 24.1725 21.0646 29.1443 22.839Z" fill="#21305C"/>
<path d="M25.9834 22.549C25.9834 22.549 26.3888 29.9429 32.4361 30.2491C38.4827 30.5553 38.5406 26.0267 37.7886 24.9251C37.0365 23.8236 34.2877 19.4999 25.9834 22.549Z" fill="#21305C"/>
<path d="M32.0991 46.7087C32.0991 46.7087 29.9271 49.6066 28.8507 50.0443C27.7744 50.482 23.4882 46.8271 23.4882 46.8271C23.4882 46.8271 17.5907 50.3064 12.7054 50.9196C12.7054 50.9196 8.34673 52.583 6.71753 65.2788H45.8237C45.8237 65.2788 45.5473 62.6234 45.8237 62.6234C46.0994 62.6234 47.9765 65.2788 51.0117 65.2788C54.0477 65.2788 64.314 65.2788 64.314 65.2788C64.314 65.2788 75.2359 54.0846 80.2864 46.2481L75.588 41.3088C75.588 41.3088 59.6226 59.4127 58.2976 59.4127C56.9734 59.4127 46.8167 50.3946 46.4028 50.1317C45.989 49.8687 35.4926 49.6875 32.0991 46.7087Z" fill="#FF8D1A"/>
<path d="M93.7609 56.7244H85.6582C86.5585 55.9772 87.4804 55.2121 88.4077 54.4421H91.3828V51.9704C92.1897 51.2992 92.9865 50.6369 93.7609 49.9919V56.7244Z" fill="#E5EAF4"/>
<path d="M91.3833 54.4421H88.4082C89.4012 53.6174 90.4003 52.7878 91.3833 51.9704V54.4421Z" fill="white"/>
<path d="M49.7725 65.1294H45.8084C45.7543 64.5692 45.5868 62.6234 45.8231 62.6234C46.0593 62.6234 47.4677 64.5692 49.7725 65.1294ZM58.2969 59.4127C57.4074 59.4127 52.5329 55.3438 49.3023 52.592C55.135 48.4153 61.8487 43.6368 68.5084 38.9081V49.1926C64.0547 54.0724 59.0165 59.4127 58.2969 59.4127ZM93.7602 31.3386V22.9003H91.0824C97.7135 18.1986 102.32 14.9234 102.861 14.4955V23.4629C102.328 24.1529 98.7659 27.1905 93.7602 31.3386Z" fill="#FBFBFA"/>
<path d="M68.5088 49.1926V38.9081C70.0199 37.8343 71.5286 36.7638 73.0226 35.7039H80.707C80.0985 36.594 79.5889 37.3868 79.2862 37.8907C79.158 38.1038 79.009 38.3357 78.8446 38.579H70.8877V41.9498H75.0202C74.4758 42.5646 73.5717 43.5821 72.4567 44.8249H70.8877V46.5707C70.1357 47.4035 69.3319 48.2911 68.5088 49.1926ZM76.2517 42.0069L76.1969 41.9498H76.298C76.2826 41.9694 76.2672 41.9881 76.2517 42.0069ZM87.9511 36.1261C88.0554 35.9799 88.1549 35.8395 88.2484 35.7039H88.4661C88.2947 35.8435 88.1233 35.9848 87.9511 36.1261ZM91.3825 33.3049V32.3332H89.4066C89.4012 32.3266 89.3958 32.3201 89.3904 32.3136C89.3448 32.2589 89.2846 32.2327 89.2112 32.2327C89.1263 32.2327 89.0244 32.2678 88.9085 32.3332H87.9086C88.3263 31.4235 88.4877 30.6911 88.0955 30.4584C88.0267 30.4175 87.9511 30.3979 87.87 30.3979C87.331 30.3979 86.5381 31.2504 85.7482 32.3332H85.6494C86.0609 31.4023 86.2624 30.6021 85.9613 30.2681C85.8934 30.193 85.8076 30.1578 85.7049 30.1578C85.1783 30.1578 84.2287 31.0912 83.2064 32.3332H77.7759C79.1542 31.3557 80.5085 30.3955 81.832 29.4573H91.3825V26.0865H86.5875C88.165 24.9695 89.6699 23.9022 91.0829 22.9003H93.7606V31.3386C92.9993 31.9706 92.2055 32.6263 91.3825 33.3049Z" fill="#E5EAF4"/>
<path d="M91.3815 29.4573H81.8311C83.4726 28.2945 85.0624 27.1668 86.5866 26.0865H91.3815V29.4573Z" fill="#FF8D1A"/>
<path d="M88.466 35.7041H88.2482C89.6017 33.7558 89.8743 32.9205 89.4064 32.3333H91.3823V33.305C90.4441 34.0783 89.4674 34.881 88.466 35.7041ZM80.7068 35.7041H73.0225C74.627 34.5658 76.2168 33.4382 77.7758 32.3333H83.2062C82.3561 33.3638 81.4557 34.6075 80.7068 35.7041ZM86.0383 35.491C86.7101 34.5013 87.4583 33.314 87.9084 32.3333H88.9083C88.2042 32.7269 86.9966 34.2122 86.0383 35.491ZM85.4662 32.7286C85.5303 32.5946 85.592 32.4632 85.6492 32.3333H85.748C85.6538 32.4624 85.5596 32.5946 85.4662 32.7286Z" fill="#FD5E34"/>
<path d="M76.298 41.9497H76.1969L75.5877 41.3087C75.5877 41.3087 75.3838 41.5398 75.0201 41.9497H70.8877V38.579H78.8445C78.1264 39.6421 77.1172 40.9347 76.298 41.9497Z" fill="white"/>
<path d="M70.8877 46.5706V44.8248H72.4567C71.9694 45.3686 71.4429 45.9549 70.8877 46.5706Z" fill="white"/>
<path d="M78.2192 44.0762L76.251 42.007C76.2664 41.9882 76.2818 41.9695 76.2973 41.9499C77.1165 40.9349 78.1257 39.6423 78.8438 38.5791C79.0083 38.3358 79.1573 38.1039 79.2854 37.8907C79.5881 37.3869 80.0978 36.5941 80.7062 35.704C81.4552 34.6074 82.3555 33.3637 83.2056 32.3333C84.2279 31.0913 85.1776 30.1579 85.7042 30.1579C85.8069 30.1579 85.8926 30.1931 85.9606 30.2682C86.2617 30.6021 86.0602 31.4024 85.6486 32.3333C85.5915 32.4631 85.5297 32.5945 85.4656 32.7285C85.559 32.5945 85.6533 32.4623 85.7475 32.3333C86.5374 31.2505 87.3303 30.398 87.8692 30.398C87.9503 30.398 88.026 30.4176 88.0947 30.4584C88.4869 30.6912 88.3256 31.4236 87.9079 32.3333C87.4577 33.3139 86.7095 34.5012 86.0378 35.4909C86.996 34.2121 88.2036 32.7268 88.9078 32.3333C89.0236 32.2679 89.1255 32.2328 89.2105 32.2328C89.2838 32.2328 89.3441 32.2589 89.3896 32.3137C89.395 32.3202 89.4004 32.3267 89.4058 32.3333C89.8737 32.9204 89.6012 33.7557 88.2476 35.704C88.1542 35.8396 88.0546 35.98 87.9504 36.1262C87.1165 36.8104 86.2648 37.5078 85.4 38.2149C85.4502 37.9553 85.4618 37.734 85.4139 37.6033C85.3591 37.4514 85.2749 37.3273 85.1699 37.2252C85.0988 37.1003 84.9815 36.9811 84.8186 36.8668C84.6703 36.7623 84.4796 36.7173 84.2588 36.7173C84.0719 36.7173 83.865 36.7492 83.6449 36.8055C83.3909 36.808 83.1461 36.8276 82.9376 36.848C81.9508 36.9427 81.049 37.2996 80.4066 38.1292C80.2452 38.3374 80.0993 38.5472 79.951 38.7538C77.7991 40.1681 79.023 42.5141 79.023 42.5141C79.2809 42.4488 79.5719 42.2299 79.8538 41.9539C80.0422 41.9915 80.2831 42.0152 80.5572 42.0152C80.6205 42.0152 80.6853 42.0135 80.7525 42.0111C79.9116 42.697 79.0654 43.387 78.2192 44.0762Z" fill="#F6B68E"/>
<path d="M80.5579 42.0151C80.2838 42.0151 80.0429 41.9915 79.8545 41.9539C80.5208 41.299 81.1347 40.3248 81.1347 40.3248C84.39 38.9032 85.5891 37.9609 85.1706 37.2252C85.2756 37.3273 85.3598 37.4514 85.4146 37.6033C85.4625 37.7339 85.4509 37.9552 85.4007 38.2149C83.8835 39.4569 82.3276 40.7266 80.7532 42.011C80.6861 42.0135 80.6212 42.0151 80.5579 42.0151ZM79.9518 38.7538C80.1 38.5472 80.246 38.3374 80.4074 38.1291C81.0498 37.2995 81.9516 36.9427 82.9384 36.848C83.1468 36.8275 83.3916 36.8079 83.6456 36.8055C82.1577 37.1852 80.1 38.6615 80.1 38.6615C80.049 38.6917 79.9996 38.7228 79.9518 38.7538Z" fill="#F9AF92"/>
<path d="M79.0233 42.5139C79.0233 42.5139 77.7995 40.1679 79.9514 38.7537C79.9993 38.7226 80.0487 38.6916 80.0997 38.6614C80.0997 38.6614 82.1574 37.1851 83.6453 36.8054C83.8653 36.749 84.0723 36.7172 84.2591 36.7172C84.48 36.7172 84.6707 36.7621 84.8189 36.8666C84.9819 36.9809 85.0992 37.1001 85.1702 37.2251C85.5887 37.9608 84.3897 38.9031 81.1343 40.3247C81.1343 40.3247 80.5205 41.2989 79.8541 41.9538C79.5723 42.2298 79.2812 42.4486 79.0233 42.5139Z" fill="#F6B68E"/>
<path d="M52.6593 65.1294H49.773C47.4682 64.5692 46.0598 62.6234 45.8236 62.6234C45.5873 62.6234 45.7548 64.5692 45.8089 65.1294H32.1699C33.803 63.76 40.5638 58.8509 49.3028 52.592C52.5334 55.3438 57.4079 59.4127 58.2974 59.4127C59.017 59.4127 64.0552 54.0724 68.5089 49.1926C69.332 48.2912 70.1358 47.4036 70.8878 46.5707C71.443 45.955 71.9696 45.3687 72.4568 44.8249C73.5717 43.5821 74.4759 42.5647 75.0202 41.9498C75.3839 41.5399 75.5878 41.3088 75.5878 41.3088L76.197 41.9498L76.2518 42.0069L78.22 44.0761C66.211 53.8625 54.0522 63.7159 52.6593 65.1294Z" fill="#FD5E34"/>
<path d="M34.1975 47.9329C33.3636 47.5883 32.6409 47.1841 32.0996 46.7088C32.0996 46.7088 32.0988 46.7096 32.0965 46.7121C32.0363 46.5251 31.9769 46.3365 31.9189 46.147C32.2077 46.1609 32.5143 46.1691 32.8386 46.1691C33.3327 46.1691 33.8701 46.1511 34.4562 46.1119C35.2538 46.058 35.8923 45.8833 36.3989 45.6146C35.6545 46.3977 34.921 47.171 34.1975 47.9329ZM37.7315 44.2118C38.8264 41.8609 37.3231 37.9741 36.7139 36.2397C36.5564 35.7931 36.4483 35.2983 36.3718 34.7675C46.1331 24.4772 55.8775 14.2752 61.3388 8.68992H72.1054C72.0274 8.75933 71.9471 8.82629 71.8691 8.89651C69.1728 11.3445 52.0291 29.1765 37.7315 44.2118Z" fill="#FBFBFA"/>
<path d="M32.8381 46.1689C32.5138 46.1689 32.2073 46.1608 31.9185 46.1469C31.7208 45.4937 31.5425 44.8249 31.3857 44.1439C31.4228 44.1357 31.4591 44.1276 31.4938 44.1169C33.5207 43.5405 35.8039 39.3997 35.763 35.4083C35.966 35.1944 36.1683 34.9813 36.3714 34.7674C36.4478 35.2981 36.5559 35.7929 36.7135 36.2396C37.3227 37.974 38.826 41.8608 37.7311 44.2117C37.2848 44.6812 36.8385 45.1507 36.3984 45.6145C35.8919 45.8831 35.2533 46.0579 34.4557 46.1118C33.8697 46.151 33.3323 46.1689 32.8381 46.1689Z" fill="#4C6499"/>
<path d="M28.6386 50.0803C27.6966 50.0811 25.52 48.4603 24.3193 47.5066C25.6266 46.1209 26.9716 44.6968 28.3406 43.249C29.3413 43.8573 30.2864 44.1799 30.9998 44.1799C31.1373 44.1799 31.2662 44.1684 31.3859 44.144C31.5426 44.825 31.721 45.4937 31.9187 46.147C31.9766 46.3364 32.036 46.525 32.0962 46.712C32.0129 46.8231 29.9057 49.6149 28.851 50.0444C28.79 50.0689 28.7189 50.0803 28.6386 50.0803Z" fill="#F6B68E"/>
<path d="M30.9991 44.1797C30.2856 44.1797 29.3405 43.8571 28.3398 43.2488C30.7605 40.6873 33.2599 38.0465 35.7624 35.4082C35.8033 39.3995 33.5201 43.5403 31.4932 44.1168C31.4585 44.1274 31.4222 44.1356 31.3851 44.1437C31.2655 44.1682 31.1365 44.1797 30.9991 44.1797Z" fill="#F6B68E"/>
<path d="M7.8252 65.1294C10.3045 62.4103 16.6692 55.6157 24.3188 47.5065C25.5194 48.4602 27.6961 50.0811 28.6381 50.0802C28.7184 50.0802 28.7894 50.0688 28.8504 50.0443C29.9051 49.6148 32.0123 46.823 32.0957 46.7119C32.098 46.7095 32.0988 46.7087 32.0988 46.7087C32.64 47.1839 33.3627 47.5881 34.1966 47.9327C26.3031 56.2526 19.8381 63.137 18.1131 65.1033L7.8252 65.1294Z" fill="#FF8D1A"/>
<path d="M6.36523 36.6174V25.62C11.747 19.9654 17.4369 14.0143 22.5561 8.68953H33.0841C25.3551 16.6836 15.0031 27.5128 6.36523 36.6174Z" fill="#FBFBFA"/>
<path d="M64.8964 33.2649H42.33C41.7069 33.2649 41.2012 32.7309 41.2012 32.0719V16.6994C41.2012 16.0404 41.7069 15.5064 42.33 15.5064H64.8964C65.5195 15.5064 66.0245 16.0404 66.0245 16.6994V32.0719C66.0245 32.7309 65.5195 33.2649 64.8964 33.2649Z" fill="#2AB7CA"/>
<path d="M64.8955 31.8506H42.3291V16.9207H64.8955V31.8506Z" fill="white"/>
<path d="M50.2471 21.2876V28.5999L56.9785 24.9441L50.2471 21.2876Z" fill="#2AB7CA"/>
</svg>
