<svg width="110" height="75" viewBox="0 0 110 75" fill="none" xmlns="http://www.w3.org/2000/svg">
<path d="M0 74.0273H109.455V0.672928H0V74.0273Z" fill="#2AB7CA"/>
<path d="M6.36426 65.2788H103.092V8.7488H6.36426V65.2788Z" fill="white"/>
<mask id="mask0" mask-type="alpha" maskUnits="userSpaceOnUse" x="6" y="8" width="98" height="58">
<path d="M6.36328 65.2791H103.091V8.74904H6.36328V65.2791Z" fill="white"/>
</mask>
<g mask="url(#mask0)">
<path d="M85.5309 19.7793H60.2171V19.2275H48.7388V19.7793H23.3207C23.0958 19.7793 22.8732 19.8261 22.6654 19.9171C22.4577 20.0081 22.2689 20.1415 22.1099 20.3097C21.9509 20.4778 21.8248 20.6774 21.7387 20.8971C21.6527 21.1168 21.6084 21.3523 21.6084 21.5901V58.2467C21.6084 58.727 21.7888 59.1876 22.1099 59.5272C22.431 59.8668 22.8666 60.0575 23.3207 60.0575H85.5309C85.985 60.0575 86.4206 59.8668 86.7417 59.5272C87.0628 59.1876 87.2432 58.727 87.2432 58.2467V21.5901C87.2432 21.3523 87.1989 21.1168 87.1128 20.8971C87.0268 20.6774 86.9007 20.4778 86.7417 20.3097C86.5827 20.1415 86.3939 20.0081 86.1862 19.9171C85.9784 19.8261 85.7558 19.7793 85.5309 19.7793Z" fill="#9EACC5"/>
<path d="M84.9487 22.9797H23.9053V59.3957H84.9487V22.9797Z" fill="white"/>
<path d="M54.3741 21.9863C54.7199 21.9863 55.0002 21.6899 55.0002 21.3242C55.0002 20.9585 54.7199 20.6621 54.3741 20.6621C54.0284 20.6621 53.748 20.9585 53.748 21.3242C53.748 21.6899 54.0284 21.9863 54.3741 21.9863Z" fill="#6C63FF"/>
<path d="M88.9574 58.7334H83V58.2795C83 58.2676 82.9978 58.2559 82.9935 58.245C82.9892 58.2341 82.983 58.2242 82.9751 58.2158C82.9672 58.2075 82.9578 58.2008 82.9475 58.1963C82.9371 58.1918 82.9261 58.1895 82.9149 58.1895H80.8723C80.8612 58.1895 80.8501 58.1918 80.8398 58.1963C80.8294 58.2008 80.8201 58.2075 80.8122 58.2158C80.8043 58.2242 80.798 58.2341 80.7937 58.245C80.7894 58.2559 80.7872 58.2676 80.7872 58.2795V58.7334H79.5106V58.2795C79.5106 58.2676 79.5084 58.2559 79.5042 58.245C79.4999 58.2341 79.4936 58.2242 79.4857 58.2158C79.4778 58.2075 79.4684 58.2008 79.4581 58.1963C79.4478 58.1918 79.4367 58.1895 79.4255 58.1895H77.383C77.3718 58.1895 77.3607 58.1918 77.3504 58.1963C77.3401 58.2008 77.3307 58.2075 77.3228 58.2158C77.3149 58.2242 77.3086 58.2341 77.3043 58.245C77.3001 58.2559 77.2979 58.2676 77.2979 58.2795V58.7334H76.0213V58.2795C76.0213 58.2676 76.0191 58.2559 76.0148 58.245C76.0105 58.2341 76.0043 58.2242 75.9963 58.2158C75.9884 58.2075 75.9791 58.2008 75.9687 58.1963C75.9584 58.1918 75.9473 58.1895 75.9362 58.1895H73.8936C73.8824 58.1895 73.8714 58.1918 73.861 58.1963C73.8507 58.2008 73.8413 58.2075 73.8334 58.2158C73.8255 58.2242 73.8193 58.2341 73.815 58.245C73.8107 58.2559 73.8085 58.2676 73.8085 58.2795V58.7334H72.5319V58.2795C72.5319 58.2676 72.5297 58.2559 72.5254 58.245C72.5212 58.2341 72.5149 58.2242 72.507 58.2158C72.4991 58.2075 72.4897 58.2008 72.4794 58.1963C72.4691 58.1918 72.458 58.1895 72.4468 58.1895H70.4043C70.3931 58.1895 70.382 58.1918 70.3717 58.1963C70.3614 58.2008 70.352 58.2075 70.3441 58.2158C70.3362 58.2242 70.3299 58.2341 70.3256 58.245C70.3213 58.2559 70.3191 58.2676 70.3192 58.2795V58.7334H69.0426V58.2795C69.0426 58.2676 69.0403 58.2559 69.0361 58.245C69.0318 58.2341 69.0255 58.2242 69.0176 58.2158C69.0097 58.2075 69.0003 58.2008 68.99 58.1963C68.9797 58.1918 68.9686 58.1895 68.9574 58.1895H66.9149C66.9037 58.1895 66.8927 58.1918 66.8823 58.1963C66.872 58.2008 66.8626 58.2075 66.8547 58.2158C66.8468 58.2242 66.8405 58.2341 66.8363 58.245C66.832 58.2559 66.8298 58.2676 66.8298 58.2795V58.7334H65.5532V58.2795C65.5532 58.2676 65.551 58.2559 65.5467 58.245C65.5424 58.2341 65.5362 58.2242 65.5283 58.2158C65.5204 58.2075 65.511 58.2008 65.5007 58.1963C65.4903 58.1918 65.4793 58.1895 65.4681 58.1895H63.4255C63.4144 58.1895 63.4033 58.1918 63.393 58.1963C63.3826 58.2008 63.3733 58.2075 63.3654 58.2158C63.3574 58.2242 63.3512 58.2341 63.3469 58.245C63.3426 58.2559 63.3404 58.2676 63.3404 58.2795V58.7334H62.0638V58.2795C62.0638 58.2676 62.0616 58.2559 62.0574 58.245C62.0531 58.2341 62.0468 58.2242 62.0389 58.2158C62.031 58.2075 62.0216 58.2008 62.0113 58.1963C62.001 58.1918 61.9899 58.1895 61.9787 58.1895H45.9787C45.9675 58.1895 45.9565 58.1918 45.9462 58.1963C45.9358 58.2008 45.9264 58.2075 45.9185 58.2158C45.9106 58.2242 45.9044 58.2341 45.9001 58.245C45.8958 58.2559 45.8936 58.2676 45.8936 58.2795V58.7334H44.617V58.2795C44.617 58.2676 44.6148 58.2559 44.6105 58.245C44.6063 58.2341 44.6 58.2242 44.5921 58.2158C44.5842 58.2075 44.5748 58.2008 44.5645 58.1963C44.5542 58.1918 44.5431 58.1895 44.5319 58.1895H42.4894C42.4782 58.1895 42.4671 58.1918 42.4568 58.1963C42.4465 58.2008 42.4371 58.2075 42.4292 58.2158C42.4213 58.2242 42.415 58.2341 42.4107 58.245C42.4065 58.2559 42.4043 58.2676 42.4043 58.2795V58.7334H41.1277V58.2795C41.1277 58.2676 41.1255 58.2559 41.1212 58.245C41.1169 58.2341 41.1106 58.2242 41.1027 58.2158C41.0948 58.2075 41.0854 58.2008 41.0751 58.1963C41.0648 58.1918 41.0537 58.1895 41.0426 58.1895H39C38.9888 58.1895 38.9778 58.1918 38.9674 58.1963C38.9571 58.2008 38.9477 58.2075 38.9398 58.2158C38.9319 58.2242 38.9256 58.2341 38.9214 58.245C38.9171 58.2559 38.9149 58.2676 38.9149 58.2795V58.7334H37.6383V58.2795C37.6383 58.2676 37.6361 58.2559 37.6318 58.245C37.6275 58.2341 37.6213 58.2242 37.6134 58.2158C37.6055 58.2075 37.5961 58.2008 37.5858 58.1963C37.5754 58.1918 37.5644 58.1895 37.5532 58.1895H35.5106C35.4995 58.1895 35.4884 58.1918 35.4781 58.1963C35.4677 58.2008 35.4584 58.2075 35.4505 58.2158C35.4426 58.2242 35.4363 58.2341 35.432 58.245C35.4277 58.2559 35.4255 58.2676 35.4255 58.2795V58.7334H34.1489V58.2795C34.1489 58.2676 34.1467 58.2559 34.1425 58.245C34.1382 58.2341 34.1319 58.2242 34.124 58.2158C34.1161 58.2075 34.1067 58.2008 34.0964 58.1963C34.0861 58.1918 34.075 58.1895 34.0638 58.1895H32.0213C32.0101 58.1895 31.999 58.1918 31.9887 58.1963C31.9784 58.2008 31.969 58.2075 31.9611 58.2158C31.9532 58.2242 31.9469 58.2341 31.9426 58.245C31.9384 58.2559 31.9362 58.2676 31.9362 58.2795V58.7334H30.6596V58.2795C30.6596 58.2676 30.6574 58.2559 30.6531 58.245C30.6488 58.2341 30.6426 58.2242 30.6346 58.2158C30.6267 58.2075 30.6174 58.2008 30.607 58.1963C30.5967 58.1918 30.5856 58.1895 30.5745 58.1895H28.5319C28.5207 58.1895 28.5097 58.1918 28.4993 58.1963C28.489 58.2008 28.4796 58.2075 28.4717 58.2158C28.4638 58.2242 28.4576 58.2341 28.4533 58.245C28.449 58.2559 28.4468 58.2676 28.4468 58.2795V58.7334H27.1702V58.2795C27.1702 58.2676 27.168 58.2559 27.1637 58.245C27.1595 58.2341 27.1532 58.2242 27.1453 58.2158C27.1374 58.2075 27.128 58.2008 27.1177 58.1963C27.1074 58.1918 27.0963 58.1895 27.0851 58.1895H25.0426C25.0314 58.1895 25.0203 58.1918 25.01 58.1963C24.9997 58.2008 24.9903 58.2075 24.9824 58.2158C24.9745 58.2242 24.9682 58.2341 24.9639 58.245C24.9596 58.2559 24.9574 58.2676 24.9574 58.2795V58.7334H21.0426C20.5008 58.7334 19.9813 58.961 19.5983 59.3661C19.2152 59.7711 19 60.3206 19 60.8935V61.8702C19 62.4431 19.2152 62.9925 19.5983 63.3976C19.9813 63.8027 20.5008 64.0303 21.0426 64.0303H88.9574C89.4992 64.0303 90.0187 63.8027 90.4017 63.3976C90.7848 62.9925 91 62.4431 91 61.8702V60.8935C91 60.3206 90.7848 59.7711 90.4017 59.3661C90.0187 58.961 89.4992 58.7334 88.9574 58.7334Z" fill="#9EACC5"/>
<path d="M69 27.4958H42V57.1068H69V27.4958Z" fill="#EAF8FA"/>
<path d="M55.1515 25.9727C55.1515 25.9727 53.0442 25.1767 51.6895 28.3604C50.3348 31.544 48.2275 35.046 48.2275 35.046L49.4317 35.3643C49.4317 35.3643 49.7327 33.1358 50.4854 32.8174L50.1843 35.6827C50.1843 35.6827 59.2156 39.0255 63.2796 35.3643L63.1291 34.2501C63.1291 34.2501 63.7312 34.4092 63.7312 35.3643L64.1828 34.8868C64.1828 34.8868 63.7312 33.9317 62.3765 32.6583C61.4874 31.8224 61.1818 30.2322 61.0768 29.2381C60.9981 28.4079 60.6841 27.6222 60.1758 26.9842C59.2755 25.8808 57.6351 24.708 55.1515 25.9727Z" fill="#2F2E41"/>
<path d="M43.5061 28.9758L42.6305 19.3037C42.6305 19.3037 40.8791 14.056 43.5061 14.4676C46.1332 14.8792 44.5764 18.8921 44.5764 18.8921L46.0359 28.9758H43.5061Z" fill="#F6B68E"/>
<path d="M53.7237 34.1208C53.7237 34.1208 53.5291 38.3396 52.5562 38.6482C51.5832 38.9569 48.8589 42.3525 50.1237 43.3814C51.3886 44.4104 58.6859 43.6901 58.6859 43.6901L58.0048 38.3396C58.0048 38.3396 56.4481 37.2077 57.7129 35.2527L53.7237 34.1208Z" fill="#F6B68E"/>
<path d="M56.2517 36.179C58.1862 36.179 59.7544 34.5205 59.7544 32.4747C59.7544 30.4289 58.1862 28.7705 56.2517 28.7705C54.3172 28.7705 52.749 30.4289 52.749 32.4747C52.749 34.5205 54.3172 36.179 56.2517 36.179Z" fill="#F6B68E"/>
<path d="M61.0254 54.7917H47.2676C47.3172 53.8605 47.4417 52.5455 47.6013 51.0999C47.6499 50.6615 47.7015 50.2098 47.755 49.754C48.2269 45.7359 48.8564 41.3238 48.8564 41.3238L49.0218 40.9194L50.7051 36.7964L50.7226 36.8036L52.9429 37.7224L53.0217 38.1176L53.624 41.118L57.5208 37.7914L61.1159 37.1967L61.3591 37.1565L61.797 41.5296C61.797 41.5296 61.7775 42.5071 61.7571 43.8992C61.7337 45.4993 61.7084 47.6477 61.7104 49.4885C61.7114 50.3683 61.7182 51.178 61.7347 51.8242C61.7483 52.3685 61.7688 52.7976 61.797 53.0538C61.8622 53.6372 61.5158 54.2433 61.0254 54.7917Z" fill="#FF8D1A"/>
<path d="M50.8038 37.3107L50.7065 36.6933L47.9822 33.1949L46.4255 27.3298L42.6309 28.8733L45.3552 35.973L49.2471 41.2207L50.8038 37.3107Z" fill="#FF8D1A"/>
<path d="M51.6505 32.9175C51.6505 32.9175 52.8547 31.1665 53.9083 30.8482C54.962 30.5298 55.1125 28.938 55.1125 28.938C55.1125 28.938 57.8219 32.1216 59.4776 32.2808C61.1333 32.44 59.6281 28.4605 59.6281 28.4605L56.6177 27.6646L53.7578 27.9829L51.5 29.5747L51.6505 32.9175Z" fill="#2F2E41"/>
<path d="M61.3454 51.2933L52.0368 51.6838C52.0368 51.6838 46.9073 52.9255 47.5934 50.2124C48.2796 47.4993 51.872 49.5924 51.872 49.5924L61.5113 49.2087L61.3454 51.2933Z" fill="#F6B68E"/>
<path d="M60.2894 37.8765L61.1651 37.1562C61.1651 37.1562 62.6245 36.333 62.9164 39.2141C63.2083 42.0952 65.3489 51.6644 63.2083 51.7673C61.0678 51.8702 55.6191 51.9731 55.6191 51.9731L56.2029 48.7834L60.6786 48.4747L60.2894 37.8765Z" fill="#FF8D1A"/>
<path opacity="0.15" d="M60.5808 42.301L60.2889 48.1661L56.0078 49.0921L59.8997 47.4458L60.5808 42.301Z" fill="black"/>
<path d="M56.5477 9.51782H32.8071V16.1031H56.5477V9.51782Z" fill="#2AB7CA"/>
<path d="M53.5314 12.1648H35.8232V13.4565H53.5314V12.1648Z" fill="white"/>
</g>
</svg>
